<svg width="24" height="24" viewBox="0 0 24 24" fill="none" xmlns="http://www.w3.org/2000/svg">
<path d="M22 12C22 17.5213 17.5254 21.9975 12.0046 22H11.8967C11.4119 21.9949 10.9282 21.955 10.4492 21.8804C10.0569 21.8198 9.66871 21.7355 9.28667 21.6279C7.18906 21.036 5.34217 19.7752 4.02688 18.0373C2.71159 16.2994 1.99988 14.1795 2 12C2 6.47792 6.47583 2 12 2H12.0046C13.365 1.99879 14.7113 2.27604 15.9606 2.81469C17.2099 3.35334 18.3357 4.14199 19.2687 5.13209C21.0236 6.98811 22.0009 9.44574 22 12Z" fill="white"/>
<path d="M9.47629 9.02583V9.47583H8.02254L3.93921 6.08041C4.19161 5.73708 4.46578 5.41029 4.76004 5.10208L9.47629 9.02583ZM20.0738 6.09875L16.0142 9.47375H14.5238V9.05625L19.2563 5.11916L19.2688 5.13208C19.5416 5.41964 19.7967 5.72339 20.033 6.04166L20.0738 6.09875ZM9.47629 14.5233V14.9733L4.76004 18.8979C4.71838 18.8562 4.67671 18.8112 4.63754 18.7675C4.38945 18.4979 4.15646 18.2149 3.93963 17.9196L8.02296 14.5233H9.47629ZM20.0742 17.9008C19.8228 18.2444 19.5498 18.5716 19.2567 18.8804L14.5238 14.9429V14.5233H16.0142L20.0742 17.9008Z" fill="#C8102E"/>
<path d="M5.99379 9.47583H2.32129C2.52993 8.67572 2.83787 7.90487 3.23796 7.18125L5.99379 9.47583ZM5.91087 14.5233L3.20837 16.7708C2.82217 16.0606 2.52427 15.3059 2.32129 14.5233H5.91087ZM9.47629 16.6367V21.6783C9.41295 21.6621 9.35129 21.645 9.2867 21.6271C7.97639 21.2581 6.75558 20.6245 5.69962 19.7654L9.47629 16.6367ZM9.47629 2.32125V7.28375L5.75587 4.18875C6.85071 3.31127 8.1185 2.67489 9.47629 2.32125ZM18.3013 4.23542L14.5238 7.36666V2.32167L14.5809 2.33625C15.9413 2.69917 17.2094 3.34646 18.3013 4.23542ZM21.6788 9.47583H18.0955L20.7917 7.2325C21.1775 7.94142 21.4754 8.69476 21.6788 9.47583ZM18.3334 19.7408C17.2192 20.6544 15.9202 21.3155 14.5259 21.6787V16.5733L18.3334 19.7408ZM21.6788 14.5233C21.4801 15.287 21.1913 16.0242 20.8184 16.7196L18.1788 14.5233H21.6788Z" fill="#012169"/>
<path d="M22 11.8954V12.095C21.9957 12.5613 21.9591 13.0267 21.8904 13.4879H13.4879V21.89C13.0296 21.9584 12.5671 21.9951 12.1037 22H11.8954C11.4319 21.9952 10.9693 21.9583 10.5108 21.8896V13.4879H2.11C2.04163 13.029 2.00487 12.566 2 12.1021L2 11.905C2.00431 11.4386 2.04093 10.973 2.10958 10.5117H10.5121V2.11C10.9484 2.04477 11.3885 2.00802 11.8296 2L12.1521 2C12.573 2.00602 12.9932 2.03858 13.41 2.0975L13.4879 2.10917V10.5117H21.89C21.9584 10.9698 21.9951 11.4322 22 11.8954Z" fill="#C8102E"/>
<path d="M12 2C6.47708 2 2 6.47708 2 12C2 17.5229 6.47708 22 12 22C17.5229 22 22 17.5229 22 12C22 6.47708 17.5229 2 12 2ZM12 20.8333C7.12916 20.8333 3.16667 16.8708 3.16667 12C3.16667 7.12916 7.12916 3.16667 12 3.16667C16.8708 3.16667 20.8333 7.12916 20.8333 12C20.8333 16.8708 16.8708 20.8333 12 20.8333Z" fill="url(#paint0_radial_272_49)"/>
<defs>
<radialGradient id="paint0_radial_272_49" cx="0" cy="0" r="1" gradientUnits="userSpaceOnUse" gradientTransform="translate(12 12) scale(10)">
<stop offset="0.88" stop-opacity="0"/>
<stop offset="1" stop-opacity="0.3"/>
</radialGradient>
</defs>
</svg>
