<svg width="24" height="24" viewBox="0 0 24 24" fill="none" xmlns="http://www.w3.org/2000/svg">
<path d="M2.04506 12.9353H21.9558V12.9356H2.04506V12.9353ZM3.0821 7.47631H20.918V7.4766H3.0821V7.47631ZM2.37284 9.29569H21.6266V9.29599H2.37284V9.29569ZM6.29799 20.2133H17.7023L17.7029 20.2126H6.29736L6.29799 20.2133ZM12 2C11.8036 2 11.6087 2.00709 11.4153 2.01816H12.5848C12.3912 2.00709 12.1964 2 12 2ZM2.04126 11.1155H21.9584V11.1158H2.04126V11.1155Z" fill="#C42126"/>
<path d="M14.9557 5.65688H19.7308C19.1636 4.96641 18.5044 4.35519 17.7742 3.83775H14.1885C14.4852 4.35975 14.7403 4.97569 14.9557 5.65688Z" fill="#E7E7E7"/>
<path d="M14.1883 3.83775H17.774C16.2917 2.78728 14.512 2.12945 12.5847 2.01815H12.2769C13.184 2.13232 13.6006 2.80367 14.1883 3.83775Z" fill="#DC3027"/>
<path d="M21.6272 9.29585C21.451 8.66766 21.2135 8.05834 20.9179 7.47672H15.4243C15.5356 8.06079 15.6234 8.67087 15.6885 9.29585H21.6272Z" fill="#E7E7E7"/>
<path d="M15.1154 7.47643H20.9178C20.5872 6.82607 20.1899 6.21578 19.7308 5.657H14.6621C14.8408 6.22275 14.9926 6.83304 15.1154 7.47643Z" fill="#DC3027"/>
<path d="M15.8989 12.9349H21.955C21.9838 12.6272 22.0001 12.3153 22.0001 12.0001C22.0001 11.7019 21.9844 11.4074 21.9588 11.1156H15.9004C15.9202 11.7219 15.9197 12.3286 15.8989 12.9349Z" fill="#E7E7E7"/>
<path d="M21.9589 11.1153C21.905 10.5 21.7939 9.89097 21.6272 9.29619H15.4333C15.4955 9.89191 15.5366 10.5014 15.5567 11.1153H21.9589Z" fill="#DC3027"/>
<path d="M15.3198 16.5739H20.8917C21.1914 15.9927 21.4329 15.3832 21.6126 14.7545H15.5892C15.5229 15.3804 15.4329 15.9903 15.3198 16.5739Z" fill="#E7E7E7"/>
<path d="M21.6128 14.7543C21.7832 14.1599 21.8978 13.5509 21.9551 12.9352H15.7101C15.6888 13.5496 15.6465 14.1589 15.583 14.7543H21.6128Z" fill="#DC3027"/>
<path d="M17.7027 20.2126C18.4436 19.6972 19.1121 19.0854 19.6883 18.3935H14.9964C14.7771 19.0775 14.5167 19.6925 14.2146 20.2126H17.7027Z" fill="#E7E7E7"/>
<path d="M14.8199 18.3934H19.6884C20.1529 17.8352 20.5562 17.2249 20.8917 16.5739H15.279C15.1544 17.2178 15.0011 17.8284 14.8199 18.3934ZM11.6375 21.9929C11.6173 21.9923 11.5971 21.9913 11.5769 21.9907C11.5971 21.9913 11.6174 21.9923 11.6375 21.9929ZM11.9999 22C14.12 22 16.0844 21.3382 17.7022 20.2133H14.0831C13.4407 21.3199 13.0169 22 11.9999 22Z" fill="#DC3027"/>
<path d="M11.9998 22C11.8784 22 11.7577 21.9972 11.6375 21.9929C11.759 21.997 11.8798 22 11.9998 22Z" fill="#C42126"/>
<path d="M14.5195 3.83775H6.22612C5.4957 4.35519 4.83664 4.96636 4.26929 5.65688H15.2865C15.0712 4.97569 14.8162 4.35975 14.5195 3.83775Z" fill="#F3F4F5"/>
<path d="M6.22607 3.83775H14.5194C13.9316 2.80367 13.184 2.13232 12.2768 2.01815H11.4152C9.4879 2.12945 7.70824 2.78728 6.22607 3.83775Z" fill="#E73625"/>
<path d="M2.37305 9.29585H16.004C15.9389 8.67074 15.8511 8.06079 15.7398 7.47672H3.08231C2.78672 8.05833 2.54915 8.66765 2.37305 9.29585Z" fill="#F3F4F5"/>
<path d="M4.26917 5.65688C3.81033 6.21565 3.41276 6.8259 3.08228 7.4763H15.7396C15.6169 6.83304 15.4652 6.22279 15.2864 5.65688H4.26917Z" fill="#E73625"/>
<path d="M2 12.0001C2 12.3153 2.01642 12.6272 2.04501 12.9349H16.1261C16.1469 12.3301 16.1472 11.7208 16.1275 11.1157H2.04121C2.01562 11.4074 2 11.7019 2 12.0001Z" fill="#F3F4F5"/>
<path d="M2.04126 11.1153H16.1274C16.1078 10.5077 16.0667 9.90092 16.0041 9.29619H2.37284C2.20607 9.89096 2.09506 10.5 2.04126 11.1153Z" fill="#E73625"/>
<path d="M15.9991 14.7543H2.38745C2.56726 15.3831 2.80875 15.9925 3.10841 16.5738H15.7297C15.8428 15.9903 15.9326 15.3804 15.9991 14.7543Z" fill="#F3F4F5"/>
<path d="M2.38723 14.7543H15.9989C16.0622 14.1589 16.1047 13.5494 16.126 12.9352H2.04492C2.10225 13.5509 2.21685 14.1599 2.38723 14.7543Z" fill="#E73625"/>
<path d="M6.29731 20.2126H14.489C14.7911 19.6923 15.0516 19.0775 15.2708 18.3935H4.31177C4.88904 19.0862 5.55688 19.698 6.29731 20.2126Z" fill="#F3F4F5"/>
<path d="M3.1084 16.5739C3.44395 17.2249 3.84718 17.8352 4.31172 18.3933H15.2707C15.4517 17.8284 15.605 17.2178 15.7296 16.5739H3.1084ZM11.5769 21.9907C11.5971 21.9913 11.6173 21.9922 11.6375 21.9929C11.7578 21.9971 11.8785 22 11.9998 22C13.0169 22 13.8461 21.3199 14.4886 20.2132H6.2979C7.80725 21.263 9.61897 21.909 11.5769 21.9907Z" fill="#E73625"/>
<path d="M11.7932 2.00519C6.66871 2.10944 2.49199 6.0661 2.04248 11.099H11.7934V2.00519H11.7932Z" fill="#283991"/>
<path d="M4.00082 7.66576L4.15316 8.13485H4.64675L4.24745 8.42492L4.39996 8.89436L4.00082 8.60412L3.60181 8.89436L3.75403 8.42492L3.35485 8.13485H3.84844L4.00082 7.66576ZM4.00082 9.32305L4.15316 9.79244H4.64675L4.24745 10.0825L4.39996 10.5519L4.00082 10.2617L3.60181 10.5519L3.75403 10.0825L3.35485 9.79244H3.84844L4.00082 9.32305ZM5.65842 5.17921L5.81081 5.64847H6.30423L5.90505 5.93871L6.05743 6.40781L5.65842 6.11791L5.25924 6.40781L5.41163 5.93871L5.01228 5.64847H5.50587L5.65842 5.17921ZM5.65842 6.83679L5.81081 7.30606H6.30423L5.90505 7.59596L6.05743 8.06539L5.65842 7.77549L5.25924 8.06539L5.41163 7.59596L5.01228 7.30606H5.50587L5.65842 6.83679ZM5.65842 8.49438L5.81081 8.96381H6.30423L5.90505 9.25355L6.05743 9.72298L5.65842 9.43278L5.25924 9.72298L5.41163 9.25355L5.01228 8.96381H5.50587L5.65842 8.49438ZM2.74236 9.72298L2.58985 9.25355L2.98903 8.96364H2.49573L2.48467 8.9294C2.43057 9.09753 2.38114 9.26712 2.33643 9.43798L2.34339 9.43278L2.74236 9.72298ZM3.60181 7.23677L4.00082 6.94657L4.4 7.23677L4.24749 6.76734L4.64667 6.47714H4.15308L4.0007 6.00804L3.84831 6.47714H3.66642C3.63264 6.52831 3.59996 6.57978 3.56711 6.63172L3.75407 6.76734L3.60181 7.23677ZM5.65842 4.46032L6.05743 4.75022L5.90505 4.28113L6.30406 3.99093H6.01905C5.77711 4.17171 5.54354 4.36343 5.31907 4.5655L5.25891 4.75022L5.65842 4.46032ZM6.91684 3.9216L7.31602 3.6314L7.71503 3.9216L7.56265 3.45217L7.96166 3.16226H7.46824L7.44755 3.0991C7.28034 3.18452 7.11487 3.27339 6.95315 3.36797L7.06906 3.45212L6.91684 3.9216ZM7.31602 4.35058L7.46841 4.81955H7.96183L7.56265 5.10975L7.71503 5.57919L7.31602 5.28895L6.91684 5.57919L7.06923 5.10975L6.66992 4.81955H7.16347L7.31602 4.35058ZM7.31602 6.00817L7.46841 6.47714H7.96183L7.56265 6.76734L7.71503 7.23677L7.31602 6.94653L6.91684 7.23677L7.06923 6.76734L6.66992 6.47714H7.16347L7.31602 6.00817ZM7.31602 7.66576L7.46841 8.13485H7.96183L7.56265 8.42492L7.71503 8.89436L7.31602 8.60412L6.91684 8.89436L7.06923 8.42492L6.66992 8.13485H7.16347L7.31602 7.66576ZM7.31602 9.32305L7.46841 9.79244H7.96183L7.56265 10.0825L7.71503 10.5519L7.31602 10.2617L6.91684 10.5519L7.06923 10.0825L6.66992 9.79244H7.16347L7.31602 9.32305ZM8.97362 3.52162L9.126 3.99089H9.61943L9.22042 4.28113L9.37263 4.75022L8.97362 4.46032L8.57432 4.75022L8.72683 4.28113L8.32752 3.99089H8.82107L8.97362 3.52162ZM8.97362 5.17921L9.126 5.64847H9.61943L9.22042 5.93871L9.37263 6.40781L8.97362 6.11791L8.57432 6.40781L8.72683 5.93871L8.32752 5.64847H8.82107L8.97362 5.17921ZM8.97362 6.83679L9.126 7.30606H9.61943L9.22042 7.59596L9.37263 8.06539L8.97362 7.77549L8.57432 8.06539L8.72683 7.59596L8.32752 7.30606H8.82107L8.97362 6.83679ZM8.97362 8.49438L9.126 8.96381H9.61943L9.22042 9.25355L9.37263 9.72298L8.97362 9.43278L8.57432 9.72298L8.72683 9.25355L8.32752 8.96381H8.82107L8.97362 8.49438ZM10.6312 2.693L10.7836 3.16226H11.277L10.8778 3.45217L11.0302 3.9216L10.6312 3.63136L10.2319 3.9216L10.3844 3.45217L9.98512 3.16226H10.4785L10.6312 2.693ZM10.6312 4.35058L10.7836 4.81955H11.277L10.8778 5.10975L11.0302 5.57919L10.6312 5.28895L10.2319 5.57919L10.3844 5.10975L9.98512 4.81955H10.4785L10.6312 4.35058ZM10.6312 6.00817L10.7836 6.47714H11.277L10.8778 6.76734L11.0302 7.23677L10.6312 6.94653L10.2319 7.23677L10.3844 6.76734L9.98512 6.47714H10.4785L10.6312 6.00817ZM10.6312 7.66576L10.7836 8.13485H11.277L10.8778 8.42492L11.0302 8.89436L10.6312 8.60412L10.2319 8.89436L10.3844 8.42492L9.98512 8.13485H10.4785L10.6312 7.66576ZM10.6312 9.32305L10.7836 9.79244H11.277L10.8778 10.0825L11.0302 10.5519L10.6312 10.2617L10.2319 10.5519L10.3844 10.0825L9.98512 9.79244H10.4785L10.6312 9.32305Z" fill="#EFEFEF"/>
</svg>
