<svg aria-hidden="true" fill="none" focusable="false" height="20" viewBox="0 0 20 20" width="20" id="cds-react-aria-12" class="css-0"><path d="M9.863 19l4.139-10.8h1.865L20 19h-1.858l-.967-2.757h-4.432L11.793 19h-1.93zm3.456-4.343h3.225l-1.587-4.443h-.054l-1.584 4.443zM2.72 16.3L1.411 15l4.593-4.557a13.996 13.996 0 01-1.49-1.937c-.428-.673-.8-1.375-1.116-2.106h1.87c.28.533.57 1.011.874 1.434.302.423.67.878 1.1 1.366a13.319 13.319 0 001.694-2.215c.446-.742.807-1.537 1.086-2.385H0V2.8h6.35V1h1.814v1.8h6.35v1.8h-2.675a16.998 16.998 0 01-1.284 3.077A14.104 14.104 0 018.553 10.5l2.16 2.186-.691 1.857L7.257 11.8l-4.536 4.5z" fill="currentColor"></path></svg>